<?xml version="1.0" standalone="no"?><!DOCTYPE svg PUBLIC "-//W3C//DTD SVG 1.1//EN" "http://www.w3.org/Graphics/SVG/1.1/DTD/svg11.dtd"><svg t="1737011947936" class="icon" viewBox="0 0 1024 1024" version="1.1" xmlns="http://www.w3.org/2000/svg" p-id="4493" xmlns:xlink="http://www.w3.org/1999/xlink" width="200" height="200"><path d="M512 960A448 448 0 1 1 512 64a448 448 0 0 1 0 896z" fill="#DD1700" p-id="4494"></path><path d="M280.96 437.376l13.312 0.64c12.736 0.832 25.344 2.752 38.528 4.224l-4.608 34.56c-20.224-1.216-39.936-3.328-59.712-3.328-18.112 0-35.904 3.328-51.136 13.952-16.576 11.52-24.256 34.624-17.28 52.736 4.48 11.712 13.824 18.688 26.048 22.72 21.824 7.168 44.288 5.76 66.752 3.776 6.72-0.64 13.44-1.92 21.12-3.072-1.088 10.688-1.792 20.928-3.52 31.04-0.32 1.92-4.864 4.288-7.552 4.416-21.632 1.216-43.264 2.688-64.96 2.56a141.184 141.184 0 0 1-52.48-11.008c-35.2-14.272-52.16-41.728-45.312-75.136 5.76-28.096 25.088-46.848 51.328-59.584 32.256-15.616 66.944-20.352 102.784-17.92z m127.296 2.944a306.176 306.176 0 0 1 99.456 2.432c1.216 0.256 2.368 0.64 4.288 1.28l-4.736 32.64c-13.824-1.664-27.2-4.16-40.64-4.8a420.736 420.736 0 0 0-46.72 0.768 28.992 28.992 0 0 0-14.336 6.4c-7.104 5.44-5.888 13.184 2.624 16.128 9.856 3.456 20.224 5.312 30.208 8.32 13.44 4.096 27.136 7.68 39.808 13.248 36.224 15.872 29.12 49.792 4.096 65.92-15.04 9.792-32 14.4-49.6 16.64a240.32 240.32 0 0 1-90.048-4.48c-3.136-0.768-6.208-1.92-9.856-3.136l3.968-31.424c21.44 2.56 42.432 5.76 63.488 7.36 9.728 0.704 19.84-1.536 29.632-3.136a24.192 24.192 0 0 0 10.048-4.992c9.152-7.04 7.936-16.128-3.136-19.52-12.352-3.904-25.408-5.824-37.76-9.856a194.304 194.304 0 0 1-37.248-15.168c-22.784-13.248-23.936-37.312-3.84-54.208 14.4-12.16 31.936-17.792 50.304-20.48z m328.768 5.44c35.2-6.528 70.464-11.52 106.304-6.208 41.088 6.016 59.584 28.608 56.64 70.144-2.24 30.592-6.08 61.056-9.216 91.904h-48.384c0.768-8.96 1.408-17.792 2.368-26.624 2.304-21.248 4.672-42.56 7.232-63.744 3.456-29.376-12.8-37.12-33.6-37.888-9.984-0.32-20.032 1.152-30.016 1.408-5.504 0.128-7.04 2.304-7.616 7.872-3.84 39.488-8.128 78.976-12.288 118.912h-47.36z m-96-3.648c20.992 4.48 40.32 12.032 53.12 31.04 22.4 33.152 12.288 84.224-21.12 107.648a113.024 113.024 0 0 1-56.192 19.2c-29.696 2.624-59.392 1.92-89.92-1.856l6.592-66.112c2.88-28.608 5.888-57.152 8.576-85.76 0.448-4.48 1.408-6.848 6.4-7.168 30.912-2.048 61.888-3.584 92.544 3.008z m-53.248 28.48c-3.84-0.256-4.928 1.856-5.248 5.568-1.152 13.952-2.752 27.84-4.096 41.792-1.6 16.128-3.072 32.256-4.8 50.56 8.704 0 16.192 0.384 23.616-0.128 19.648-1.28 37.952-6.272 51.84-21.952 22.208-25.088 11.52-64.896-20.48-72.64-13.12-3.2-27.2-2.304-40.832-3.2z" fill="#FFFFFF" p-id="4495"></path></svg>