<?xml version="1.0" standalone="no"?><!DOCTYPE svg PUBLIC "-//W3C//DTD SVG 1.1//EN" "http://www.w3.org/Graphics/SVG/1.1/DTD/svg11.dtd"><svg t="1737095932631" class="icon" viewBox="0 0 1300 1024" version="1.1" xmlns="http://www.w3.org/2000/svg" p-id="12792" xmlns:xlink="http://www.w3.org/1999/xlink" width="253.90625" height="200"><path d="M784.058182 99.258182l10.938182 18.385454-21.294546-2.56-14.196363 16.058182-4.072728-21.061818-19.781818-8.494545 18.734546-10.472728 2.094545-21.294545 15.709091 14.545454 20.945454-4.654545-9.076363 19.549091zM1067.287273 642.443636l-18.501818 10.821819 2.56-21.294546-16.058182-14.196364 21.061818-4.072727 8.494545-19.665454 10.472728 18.734545 21.294545 1.978182-14.661818 15.709091 4.770909 20.945454-19.432727-8.96z" fill="#2196F3" p-id="12793"></path><path d="M1067.287273 642.443636l-18.501818 10.821819 2.56-21.294546-16.058182-14.196364 21.061818-4.072727 8.494545-19.665454 10.472728 18.734545 21.294545 1.978182-14.661818 15.709091 4.770909 20.945454-19.432727-8.96zM571.927273 100.072727l-17.454546-12.567272 20.596364-6.167273 6.516364-20.48 12.218181 17.570909 21.410909-0.116364-12.916363 17.105455 6.749091 20.363636-20.247273-6.981818-17.338182 12.683636 0.465455-21.410909zM991.418182 784.407273l-21.178182 3.490909 10.123636-18.967273-9.774545-18.967273 21.061818 3.723637 15.127273-15.243637 2.909091 21.294546 19.2 9.658182-19.316364 9.309091-3.258182 21.178181-14.894545-15.476363zM427.985455 156.741818L407.272727 151.505455l16.872728-13.265455-1.396364-21.410909 17.803636 11.985454 20.014546-7.912727-5.934546 20.596364 13.730909 16.523636-21.410909 0.814546-11.52 18.152727-7.447272-20.247273zM854.225455 896.465455l-20.712728-5.352728 16.872728-13.265454-1.396364-21.294546 17.803636 11.869091 20.014546-7.912727-5.934546 20.712727 13.730909 16.523637-21.527272 0.814545-11.403637 18.036364-7.447272-20.130909zM562.501818 923.694545l10.821818 18.385455-21.294545-2.56-14.196364 16.058182-4.072727-21.061818-19.665455-8.494546 18.734546-10.356363 1.978182-21.41091 15.709091 14.661819 20.945454-4.770909-8.96 19.54909zM242.734545 420.770909l-18.385454 10.938182 2.56-21.294546-16.058182-14.196363 21.061818-4.189091 8.494546-19.665455 10.356363 18.734546 21.410909 2.094545-14.545454 15.709091 4.654545 20.945455-19.549091-9.076364z" fill="#2196F3" p-id="12794"></path><path d="M242.734545 420.770909l-18.385454 10.938182 2.56-21.294546-16.058182-14.196363 21.061818-4.189091 8.494546-19.665455 10.356363 18.734546 21.410909 2.094545-14.545454 15.709091 4.654545 20.945455-19.549091-9.076364zM700.858182 943.941818l-17.454546-12.450909 20.48-6.283636 6.516364-20.48 12.334545 17.687272 21.41091-0.116363-12.916364 17.105454 6.632727 20.363637-20.247273-7.098182-17.221818 12.683636 0.465455-21.410909zM303.592727 278.807273l-21.178182 3.490909 10.123637-18.967273-9.890909-18.967273 21.178182 3.723637 15.010909-15.243637 2.909091 21.294546 19.2 9.541818-19.316364 9.425455-3.258182 21.178181-14.778182-15.476363z" fill="#2196F3" p-id="12795"></path><path d="M407.272727 90.647273a486.632727 486.632727 0 0 1 504.552728 11.636363l25.018181-14.429091A512 512 0 0 0 139.636364 546.909091l25.018181-14.429091A486.981818 486.981818 0 0 1 407.272727 90.647273zM893.323636 933.352727a486.749091 486.749091 0 0 1-504.669091-11.636363l-24.901818 14.429091A512 512 0 0 0 1161.192727 477.090909l-24.901818 13.963636a486.981818 486.981818 0 0 1-242.967273 442.298182z" fill="#2196F3" p-id="12796"></path><path d="M814.545455 795.927273a327.447273 327.447273 0 0 1-258.21091 29.556363l-29.78909 17.105455A353.163636 353.163636 0 0 0 998.865455 570.181818l-29.789091 17.105455A326.865455 326.865455 0 0 1 814.545455 795.927273zM486.865455 228.072727A327.447273 327.447273 0 0 1 744.727273 198.516364l29.789091-17.105455A353.163636 353.163636 0 0 0 302.545455 453.818182l29.78909-17.105455A326.865455 326.865455 0 0 1 486.865455 228.072727zM1288.378182 374.690909a53.294545 53.294545 0 0 1-14.429091 11.636364L229.469091 989.090909a53.876364 53.876364 0 0 1-73.425455-19.665454L7.214545 710.632727a53.527273 53.527273 0 0 1 19.781819-73.309091L1071.476364 34.909091a53.876364 53.876364 0 0 1 73.425454 19.665454l148.829091 258.327273a53.061818 53.061818 0 0 1 5.352727 40.727273 55.272727 55.272727 0 0 1-10.705454 21.061818zM32.232727 665.716364A28.043636 28.043636 0 0 0 29.323636 698.181818l148.829091 257.978182a28.392727 28.392727 0 0 0 38.516364 10.356364l1044.48-601.949091a28.16 28.16 0 0 0 10.356364-38.516364L1122.676364 67.84a28.276364 28.276364 0 0 0-38.4-10.356364L39.68 659.432727a27.810909 27.810909 0 0 0-7.447273 6.283637z" fill="#2196F3" p-id="12797"></path><path d="M496.756364 599.738182l-137.541819 79.36 38.4 66.56a14.08 14.08 0 0 0 21.527273 5.934545L532.596364 686.545455a20.712727 20.712727 0 0 0 9.890909-10.938182q2.676364-9.774545-16.756364-46.545455l18.269091-4.072727q20.48 42.938182 18.036364 55.854545a35.84 35.84 0 0 1-16.058182 19.316364l-122.298182 69.469091q-25.134545 14.429091-40.145455-11.636364l-67.490909-116.363636 15.941819-9.192727 18.385454 32 121.367273-69.818182-33.396364-58.181818-149.294545 86.109091-8.96-15.476364 165.469091-95.534546zM543.883636 445.44a433.687273 433.687273 0 0 1 5.585455 89.018182c9.309091-7.214545 18.850909-14.778182 28.741818-23.272727v-32.116364l16.872727-3.025455a581.12 581.12 0 0 1-4.305454 109.265455 496.174545 496.174545 0 0 0 42.123636-42.123636l7.098182 14.545454a420.305455 420.305455 0 0 1-59.578182 56.552727l-12.567273-11.636363a30.952727 30.952727 0 0 0 4.654546-8.843637 284.509091 284.509091 0 0 0 5.818182-62.138181l-34.909091 26.88-12.450909-11.636364a20.014545 20.014545 0 0 0 3.258182-9.890909 413.44 413.44 0 0 0-8.494546-88.436364zM667.578182 599.272727a572.741818 572.741818 0 0 1-65.28 64.581818l-10.938182-14.42909a490.821818 490.821818 0 0 0 67.490909-65.28zM580.305455 453.818182l52.945454-30.487273-15.476364-26.530909 16.174546-9.309091 15.476364 26.763636 52.82909-30.254545 8.96 15.592727-52.82909 30.487273 18.967272 32.814545 46.545455-26.763636 9.192727 15.243636-108.101818 62.487273-8.96-15.476363 45.614545-26.414546-18.967272-32.814545-52.945455 30.603636z m158.72 23.272727l51.432727 89.018182-15.476364 8.96-6.167273-10.589091-63.418181 36.654545 6.167272 10.589091-15.709091 9.076364-51.432727-89.134545z m-42.356364 108.916364l63.418182-36.654546-27.810909-48.290909-63.418182 36.654546zM726.574545 363.52l86.69091-50.036364-12.8-22.574545 16.407272-9.541818 12.8 22.225454 86.225455-49.803636 8.843636 15.243636-86.225454 49.803637 12.567272 21.76 69.818182-40.378182 36.189091 62.836363-56.32 32.581819q42.938182 19.898182 115.549091 13.730909l-2.909091 20.014545q-77.730909 1.047273-125.44-26.298182h-0.698182l46.545455 80.523637-16.407273 9.425454-46.545454-80.407272h-0.698182a217.018182 217.018182 0 0 1-40.96 122.996363l-17.803637-9.309091a202.007273 202.007273 0 0 0 45.730909-106.123636L801.512727 453.818182l-36.305454-62.72 69.818182-40.145455-12.567273-21.643636-86.690909 50.036364z m135.912728 34.909091l-19.083637-33.047273-53.527272 30.836364 19.083636 33.047273z m69.818182-40.610909l-19.083637-33.047273-53.410909 31.301818 19.083636 33.047273z" fill="#2196F3" p-id="12798"></path></svg>