<?xml version="1.0" standalone="no"?><!DOCTYPE svg PUBLIC "-//W3C//DTD SVG 1.1//EN" "http://www.w3.org/Graphics/SVG/1.1/DTD/svg11.dtd"><svg t="1737102252160" class="icon" viewBox="0 0 1024 1024" version="1.1" xmlns="http://www.w3.org/2000/svg" p-id="32356" xmlns:xlink="http://www.w3.org/1999/xlink" width="200" height="200"><path d="M508.857123 947.487194c-201.397023 0-364.646017-163.248995-364.646017-364.646017 0-83.340436 37.461652-186.007761 112.168207-224.44479 0 0 13.330135 138.431101 84.171311 196.339519 8.453256-92.877443-57.005292-398.820292 224.44479-504.95562 0 170.9075-3.648628 289.578212 84.171311 392.751288-8.019756-63.146546 14.486136-162.634869 137.527976-197.676145-1.083751 162.959994 86.808439 218.231285 86.808439 337.949623 0 201.469273-163.248995 364.682142-364.646017 364.682142z m231.92267-604.046567c-43.241657 18.965639-44.397658 121.524589-34.788401 183.262259-168.053623-30.236647-205.695901-236.907924-192.871516-390.728286-145.186481 97.862697-113.974458 380.938404-107.905454 496.502363-137.708601 7.911381-179.902632-144.102731-176.86813-161.912368-27.23827 30.706272-28.105271 62.532421-28.10527 101.691949 0 168.776124 144.463981 319.092359 322.668736 319.092359 133.265223 0 292.432089-139.839977 292.432089-304.244973 0-90.890567-69.938051-149.160234-74.562054-243.663303z" fill="#231815" p-id="32357"></path></svg>