<?xml version="1.0" standalone="no"?><!DOCTYPE svg PUBLIC "-//W3C//DTD SVG 1.1//EN" "http://www.w3.org/Graphics/SVG/1.1/DTD/svg11.dtd"><svg t="1737092988349" class="icon" viewBox="0 0 3990 1024" version="1.1" xmlns="http://www.w3.org/2000/svg" p-id="5462" xmlns:xlink="http://www.w3.org/1999/xlink" width="779.296875" height="200"><path d="M84.744828 88.275862C-3.531034 176.551724-7.062069 194.206897 7.062069 533.186207 21.186207 985.158621 24.717241 988.689655 512 988.689655 978.096552 988.689655 988.689655 978.096552 988.689655 536.717241c0-451.972414-67.089655-451.972414-77.682758 0l-10.593104 363.696552H494.344828c-381.351724 0-406.068966-3.531034-406.068966-70.62069s28.248276-70.62069 363.696552-81.213793l360.165517-10.593103V0h-317.793103C197.737931 0 165.958621 7.062069 84.744828 88.275862zM1539.531034 197.737931C1507.751724 278.951724 1511.282759 282.482759 1588.965517 282.482759c52.965517 0 70.62069 24.717241 70.62069 88.275862s-17.655172 88.275862-70.62069 88.275862c-38.841379 0-70.62069 14.124138-70.620689 35.310345 0 17.655172 24.717241 35.310345 52.965517 35.310344 49.434483 0 49.434483 14.124138 0 127.117242-67.089655 158.896552-67.089655 155.365517 14.124138 155.365517 38.841379 0 77.682759-35.310345 88.275862-81.213793l24.717241-77.682759 38.84138 81.213793c21.186207 42.372414 67.089655 77.682759 102.4 77.682759 52.965517 0 56.496552-14.124138 21.186206-105.931034-21.186207-56.496552-60.027586-105.931034-84.744827-105.931035s-45.903448-17.655172-45.903448-35.310345c0-21.186207 31.77931-35.310345 70.620689-35.310345s70.62069-17.655172 70.62069-35.310344c0-21.186207-24.717241-35.310345-52.965517-35.310345-31.77931 0-52.965517-31.77931-52.965518-88.275862S1786.703448 282.482759 1818.482759 282.482759c28.248276 0 52.965517-17.655172 52.965517-35.310345 0-21.186207-49.434483-35.310345-109.462069-35.310345-60.027586 0-98.868966-14.124138-84.744828-35.310345 10.593103-21.186207-10.593103-35.310345-45.903448-35.310345-38.841379 0-81.213793 24.717241-91.806897 56.496552zM2401.103448 247.172414c45.903448 84.744828 158.896552 98.868966 127.117242 14.124138-10.593103-31.77931-21.186207-63.558621-21.186207-70.62069 0-7.062069-31.77931-14.124138-70.62069-14.124138-63.558621 0-67.089655 10.593103-35.310345 70.62069zM3418.041379 201.268966l-169.489655 14.124137V459.034483c0 130.648276-10.593103 264.827586-21.186207 296.606896-14.124138 35.310345-3.531034 56.496552 31.779311 56.496552 74.151724 0 95.337931-77.682759 95.337931-321.324138 0-183.613793 7.062069-208.331034 70.620689-208.331034 38.841379 0 70.62069 14.124138 70.62069 35.310344 0 17.655172-21.186207 35.310345-49.434483 35.310345-28.248276 0-45.903448 38.841379-42.372414 105.931035 3.531034 98.868966 14.124138 105.931034 137.710345 105.931034 91.806897 0 130.648276 14.124138 130.648276 52.965517s-38.841379 52.965517-141.241379 52.965518c-77.682759 0-141.241379 14.124138-141.24138 35.310345 0 17.655172 63.558621 35.310345 137.710345 35.310344 77.682759 0 148.303448 21.186207 158.896552 42.372414 17.655172 35.310345 24.717241 35.310345 42.372414 0 10.593103-21.186207 67.089655-42.372414 123.586207-42.372414s102.4-17.655172 102.4-35.310344c0-21.186207-45.903448-35.310345-105.931035-35.310345-70.62069 0-105.931034-17.655172-105.931034-52.965518s35.310345-52.965517 105.931034-52.965517c60.027586 0 105.931034-17.655172 105.931035-35.310345 0-35.310345-144.772414-52.965517-324.855173-38.841379-56.496552 3.531034-98.868966-10.593103-98.868965-28.248276 0-24.717241 84.744828-38.841379 211.862069-38.841379 116.524138 0 211.862069-14.124138 211.862069-35.310345s-77.682759-35.310345-176.551724-35.310345c-95.337931 0-176.551724-17.655172-176.551725-35.310345 0-21.186207 81.213793-35.310345 176.551725-35.310344 98.868966 0 176.551724-17.655172 176.551724-35.310345 0-21.186207-52.965517-35.310345-112.993104-35.310345-63.558621 0-148.303448-7.062069-187.144827-14.124138-38.841379-3.531034-144.772414-3.531034-236.579311 3.531035zM1942.068966 497.875862v282.482759l151.834482-10.593104 148.303449-10.593103 10.593103-275.42069 10.593103-271.889655H1942.068966v286.013793z m211.862068-3.531034c0 165.958621-10.593103 211.862069-52.965517 211.862069S2048 660.303448 2048 494.344828s10.593103-211.862069 52.965517-211.862069S2153.931034 328.386207 2153.931034 494.344828zM2648.275862 388.413793v180.082759l204.8-10.593104 201.268966-10.593103 10.593103-169.489655 10.593103-165.958621H2648.275862v176.551724z m346.041379-10.593103c-7.062069 81.213793-28.248276 102.4-123.586207 109.462069-109.462069 10.593103-116.524138 3.531034-116.524137-95.337931 0-102.4 10.593103-109.462069 127.117241-109.462069 116.524138 0 123.586207 7.062069 112.993103 95.337931zM2365.793103 384.882759c0 21.186207 17.655172 45.903448 35.310345 56.496551 21.186207 10.593103 35.310345 91.806897 35.310345 180.082759 0 109.462069 17.655172 162.427586 52.965517 180.082759 74.151724 24.717241 112.993103-14.124138 60.027587-67.089656-24.717241-24.717241-42.372414-120.055172-42.372414-211.862069 0-144.772414-10.593103-169.489655-70.62069-169.489655-38.841379 0-70.62069 14.124138-70.62069 31.779311zM2669.462069 656.772414c-35.310345 95.337931-24.717241 155.365517 31.77931 155.365517 28.248276 0 52.965517-21.186207 52.965518-49.434483 0-28.248276 10.593103-74.151724 21.186206-105.931034 14.124138-35.310345 3.531034-56.496552-31.77931-56.496552-28.248276 0-63.558621 24.717241-74.151724 56.496552zM2966.068966 649.710345c0 91.806897 42.372414 162.427586 95.337931 162.427586 35.310345 0 45.903448-21.186207 31.77931-56.496552-10.593103-31.77931-21.186207-77.682759-21.186207-105.931034 0-28.248276-24.717241-49.434483-52.965517-49.434483s-52.965517 21.186207-52.965517 49.434483z" fill="#d81e06" p-id="5463"></path><path d="M158.896552 847.448276c28.248276 45.903448 607.337931 45.903448 635.586207 0 14.124138-21.186207-98.868966-35.310345-317.793104-35.310345s-331.917241 14.124138-317.793103 35.310345z" fill="#d81e06" p-id="5464"></path></svg>