<?xml version="1.0" standalone="no"?><!DOCTYPE svg PUBLIC "-//W3C//DTD SVG 1.1//EN" "http://www.w3.org/Graphics/SVG/1.1/DTD/svg11.dtd"><svg t="1737099615652" class="icon" viewBox="0 0 1024 1024" version="1.1" xmlns="http://www.w3.org/2000/svg" p-id="29114" xmlns:xlink="http://www.w3.org/1999/xlink" width="200" height="200"><path d="M512 512m-494.344828 0a494.344828 494.344828 0 1 0 988.689656 0 494.344828 494.344828 0 1 0-988.689656 0Z" fill="#3177FD" p-id="29115"></path><path d="M310.554483 797.448828c-9.992828 0-18.131862-8.580414-18.131862-19.120552V726.510345c0-103.635862 59.144828-195.531034 150.669241-234.125242l10.363586-4.378482-8.792276-7.291587c-34.356966-28.495448-54.077793-71.062069-54.077793-116.80662 0-81.937655 63.205517-148.621241 140.888276-148.621242s140.888276 66.683586 140.888276 148.621242c0 45.744552-19.720828 88.311172-54.077793 116.80662l-8.792276 7.291587 10.345931 4.378482c91.559724 38.594207 150.704552 130.507034 150.704552 234.125242v51.800276c0 10.540138-8.15669 19.120552-18.167173 19.120551H310.572138z m220.936827-302.185931c-111.810207 0-221.007448 90.376828-219.047724 231.282758v49.964138H750.521379v-49.964138c-0.582621-140.040828-107.219862-231.282759-219.012413-231.282758z m-0.017655-261.59669c-68.043034 0-123.409655 58.438621-123.409655 130.259862 0 71.838897 55.366621 130.259862 123.409655 130.259862s123.409655-58.438621 123.409655-130.259862-55.366621-130.259862-123.409655-130.259862zM212.391724 719.748414c-10.028138 0-18.184828-8.562759-18.184827-19.120552v-40.077241c0-75.22869 39.141517-143.36 102.135172-177.787587l7.415172-4.043034-5.632-6.550069a126.216828 126.216828 0 0 1-30.260965-82.308414c0-64.882759 49.399172-119.401931 110.574345-122.597517-6.10869 9.586759-8.73931 18.114207-10.593104 26.782897-52.488828 7.115034-79.783724 49.434483-79.783724 97.421241 0 47.104 14.018207 62.781793 39.671173 76.782345 7.485793 6.391172 7.697655 9.745655 8.244965 13.665103-0.264828 4.890483-2.824828 8.827586-5.967448 10.363586l-7.944828 2.577656c-68.272552 18.184828-107.590621 90.959448-107.590621 165.252413l-0.052965 36.581518 39.194483-0.47669c-2.048 12.588138-2.048 12.588138-3.54869 23.534345H212.391724z m600.222897 0c-0.794483-8.350897-1.518345-14.742069-3.531035-20.939035h39.335724v-38.241103c-2.206897-77.806345-38.541241-151.00469-110.168276-167.706483l-4.590344-1.447724c-3.813517-2.01269-4.201931-5.737931-4.396138-9.586759 0-7.68 3.601655-8.421517 11.158069-11.440551 26.200276-28.424828 34.374621-47.492414 34.37462-80.525242-8.333241-68.148966-33.015172-83.42069-77.329655-96.503172-4.519724-15.130483-3.778207-12.623448-13.294345-26.094345 61.210483 3.142621 110.644966 57.679448 110.644966 122.597517a126.181517 126.181517 0 0 1-30.260966 82.308414l-5.614344 6.532414 7.415172 4.060689c62.976 34.427586 102.099862 102.541241 102.099862 177.787587v40.077241c0 10.540138-8.139034 19.120552-18.149517 19.120552h-37.693793z" fill="#FFFFFF" p-id="29116"></path></svg>