<?xml version="1.0" standalone="no"?><!DOCTYPE svg PUBLIC "-//W3C//DTD SVG 1.1//EN" "http://www.w3.org/Graphics/SVG/1.1/DTD/svg11.dtd"><svg t="1737099649015" class="icon" viewBox="0 0 1024 1024" version="1.1" xmlns="http://www.w3.org/2000/svg" p-id="31317" xmlns:xlink="http://www.w3.org/1999/xlink" width="200" height="200"><path d="M512 512m-512 0a512 512 0 1 0 1024 0 512 512 0 1 0-1024 0Z" fill="#FA4852" p-id="31318"></path><path d="M512 256q154.88 0 323.413333 226.986667a91.733333 91.733333 0 0 1 0 108.8l-3.413333 4.266666q-166.826667 222.72-320 222.72t-323.413333-226.986666a91.733333 91.733333 0 0 1 0-108.8l3.413333-4.266667Q359.253333 256 512 256z m0 181.333333a100.266667 100.266667 0 1 0 100.266667 99.84A100.266667 100.266667 0 0 0 512 437.333333z" fill="#FFFFFF" p-id="31319"></path></svg>